# xmcd
#
# Track frame offsets: 
#        150
#        15357
#        29530
#        41477
#        63877
#        81267
#        97477
#        111697
#        130790
#        146182
#        157992
#        172525
#        191300
#        205600
#        221550
#
# Disc length: 3208 seconds
#
# Revision: 0
# Processed by: cddbd v1.5.2PL0 Copyright (c) Steve Scherf et al.
# Submitted via: ExactAudioCopy v0.95b4
#
DISCID=cb0c860f
DTITLE=Ebony Hillbillies - I Thought You Knew
DYEAR=2005
DGENRE=String Band
TTITLE0=Algia Mae
TTITLE1=Jericho
TTITLE2=I Thought You Knew
TTITLE3=Liza Jane
TTITLE4=Cluck Old Hen
TTITLE5=Laura's Song
TTITLE6=Mama and Papa's Waltz
TTITLE7=Dangerous Man
TTITLE8=Coming of Age
TTITLE9=Hugo
TTITLE10=Anna Mae (A Lullabye)
TTITLE11=Idy Red (Gypsy Davy)
TTITLE12=Time to Learn
TTITLE13=Waltz Across Texas
TTITLE14=Sexual Healing
EXTD=Norris Bennett: banjo, mountain dulcimer, guitar, vocals\n(Ohenio
EXTD=) Henrique Prince: violin, vocals\nDave Colding, Tony Garnier (tr
EXTD=ack 15): bass\nRicky Gordon: percussion, vocals\nDedicated to Mar
EXTD=tha Holmes (1923-02-07/2006-09-19).\nRecorded by Larry Baeder and T
EXTD=om Hemleb at Pyramid Studios, New York US-NY, 2004-12 and 2005-02.\n
EXTD=Mastered by Howie Weinberg at Masterdisk, New York US-NY.\nProduc
EXTD=ed by Larry Baeder and Archie Walker.\n© 2005 O.H. Prince and Norri
EXTD=s Bennett d/b/a The Ebony Hillbillies.\nCD: Ebony Hillbillies EH-
EXTD=CD05 (2007), <http://ebonyhillbillies.com/>.
EXTT0=(Norris Bennett)
EXTT1=(trad. - arr. O.H. Prince/Norris Bennett)
EXTT2=(O.H. Prince)
EXTT3=(trad. - arr. O.H. Prince)
EXTT4=(trad. - arr. Norris Bennett)
EXTT5=(Norris Bennett)
EXTT6=(trad. - arr. O.H. Prince)
EXTT7=(O.H. Prince)
EXTT8=(O.H. Prince)
EXTT9=(Norris Bennett)
EXTT10=(Norris Bennett)
EXTT11=(trad. - arr. O.H. Prince)
EXTT12=(Timothy Page O'Brien/Patrick Alger)
EXTT13=(Billy Talmadge Tubb)
EXTT14=(Odell Brown/David Ritz/Marvin Gaye)
PLAYORDER=
